<?xml version="1.0" encoding="utf-8"?>
<svg xmlns="http://www.w3.org/2000/svg" viewBox="0 0 500 500">
  <g transform="matrix(1.418374, 0, 0, 1.418374, -64.129151, -38.534939)" style="">
    <path class="cls-1" d="m185.59,64.06c-1.49,2.12-2.8,4.38-3.89,6.73-2.79,5.94-4.19,12.29-4.19,18.9,0,5.11.8,10.18,2.38,15.09.96,2.96,2.66,6.63,3.39,8.14l38.5,66.53,69.98-120.78c1.21-2.38,2.57-4.72,4.06-6.96,1.55-2.33,3.22-4.54,5.01-6.63h-78.71c-14.51,0-28.16,7.1-36.53,18.99Z" style="fill: rgb(11, 29, 59); stroke-width: 0px;"/>
    <path class="cls-1" d="m352.96,45.08c-14.86,0-28.65,7.34-36.98,19.65l-3.06,5.28c-.07.16-.14.32-.22.48l-.24.53s-.03.06-.04.08c-2.71,5.88-4.08,12.13-4.08,18.6,0,7.41,1.85,14.74,5.36,21.21.12.21.22.43.32.65l32.23,55.85s.04.06.06.09l.07.11c.41.68.78,1.32,1.13,1.96.04.07.07.13.11.18l.2.36s.04.07.06.1c1.69,3.11,3.13,6.35,4.31,9.68l40.88-70.64c3-6.11,4.52-12.69,4.52-19.57,0-24.6-20.02-44.62-44.62-44.62Z" style="fill: rgb(11, 29, 59); stroke-width: 0px;"/>
    <g>
      <path class="cls-1" d="m326.73,181.58c-.09-.15-.17-.29-.24-.42-.21-.39-.43-.78-.66-1.16-.03-.04-.05-.08-.08-.12l-.02-.04c-.06-.09-.11-.18-.16-.27l-32.81-56.86c-.25-.43-.47-.87-.66-1.32-1.48-2.85-2.76-5.79-3.83-8.82l-38.49,66.44c-.18.4-.38.79-.61,1.18v.02c-.25.4-.48.8-.71,1.21v.02c-.25.44-.52.85-.81,1.25l-12.01,20.73,44.34,76.61c.83,1.32,1.61,2.68,2.34,4.05.05.1.11.19.16.29,1.56,2.95,2.89,5.99,3.98,9.1l23.02-39.78c.08-.13.15-.26.23-.38l13.73-23.74c.03-.06.07-.12.1-.18l4.59-7.92c2.66-5.81,4.01-12.04,4.01-18.52,0-7.4-1.85-14.74-5.35-21.21l-.08-.14Z" style="fill: rgb(11, 29, 59); stroke-width: 0px;"/>
      <path class="cls-1" d="m238.42,174.75l-.06.1c-.14.24-.27.49-.41.74.29-.52.58-1.03.88-1.53-.14.23-.28.46-.41.69Z" style="fill: rgb(11, 29, 59); stroke-width: 0px;"/>
    </g>
    <path class="cls-1" d="m191.46,174.99c-5.26-10.01-31.23-51.39-34.14-62.01-13.51,30.3-44.52,51.79-78.53,45.32l40.7,70.33c.77,1.1,1.57,2.16,2.42,3.18,3.85,4.65,8.58,8.44,13.93,11.23,10.83,5.66,24.02,6.58,35.51,2.47,18.83-5.61,27.12-26.65,36.55-42.11-4.39-7.59-11.82-20.44-16.45-28.4Z" style="fill: rgb(11, 29, 59); stroke-width: 0px;"/>
    <g>
      <path class="cls-1" d="m171.5,270.39c-1.15.26-2.32.49-3.47.68,1.15-.2,2.32-.43,3.47-.68,0,0,0,0,0,0Z" style="fill: rgb(11, 29, 59); stroke-width: 0px;"/>
      <path class="cls-1" d="m175.39,269.4h.03s-2.04.54-2.04.54l.71-.19c.43-.11.87-.23,1.3-.35Z" style="fill: rgb(11, 29, 59); stroke-width: 0px;"/>
      <path class="cls-1" d="m173.39,269.94c-.61.16-1.25.31-1.88.45l.37-.08c.51-.12,1.02-.24,1.51-.37Z" style="fill: rgb(11, 29, 59); stroke-width: 0px;"/>
      <path class="cls-1" d="m167.74,271.12c.09-.01.17-.03.26-.04-.13.02-.26.04-.4.06h0s.02,0,.04,0l.1-.02Z" style="fill: rgb(11, 29, 59); stroke-width: 0px;"/>
      <path class="cls-1" d="m168.03,271.07s-.02,0-.03,0c0,0,0,0,0,0,0,0,.01,0,.02,0Z" style="fill: rgb(11, 29, 59); stroke-width: 0px;"/>
      <path class="cls-1" d="m178.19,268.53c.32-.1.63-.21.98-.33l.19-.07c-.44.16-.87.3-1.31.45-.57.19-1.14.36-1.7.53.53-.16,1.06-.32,1.6-.5.08-.02.17-.05.25-.08Z" style="fill: rgb(11, 29, 59); stroke-width: 0px;"/>
      <path class="cls-1" d="m181.34,267.39c-.61.24-1.28.49-1.95.72h-.03s0,0,0,0c.67-.24,1.35-.49,1.97-.73Z" style="fill: rgb(11, 29, 59); stroke-width: 0px;"/>
      <path class="cls-1" d="m176.34,269.11c-.14.04-.28.09-.42.13-.11.04-.22.07-.33.1.11-.03.22-.07.33-.1.14-.04.28-.09.42-.13Z" style="fill: rgb(11, 29, 59); stroke-width: 0px;"/>
      <path class="cls-1" d="m166.11,271.37c.47-.07.95-.14,1.49-.23-.48.08-.98.16-1.49.23Z" style="fill: rgb(11, 29, 59); stroke-width: 0px;"/>
      <path class="cls-1" d="m164.38,271.59h.01s.07,0,.1-.01c.01,0,.03,0,.04,0,.54-.06,1.07-.13,1.57-.2-.49.07-1.02.14-1.55.2-.09.01-.18.02-.27.03h-.08s.09,0,.09,0c.03,0,.06,0,.09,0Z" style="fill: rgb(11, 29, 59); stroke-width: 0px;"/>
      <path class="cls-1" d="m146.07,271.26l1.26.19s.02,0,.02,0c-.76-.1-1.52-.21-2.28-.33,0,0,0,0,0,0,.33.05.66.1.99.15Z" style="fill: rgb(11, 29, 59); stroke-width: 0px;"/>
      <path class="cls-1" d="m145.08,271.11c-.23-.04-.47-.08-.71-.13.24.04.48.09.71.12,0,0,0,0,0,0Z" style="fill: rgb(11, 29, 59); stroke-width: 0px;"/>
      <polygon class="cls-1" points="181.6 267.29 181.6 267.29 181.34 267.39 181.6 267.29" style="fill: rgb(11, 29, 59); stroke-width: 0px;"/>
      <path class="cls-1" d="m156.76,272.06c-.23,0-.45,0-.68,0,.12,0,.25,0,.37,0,.1,0,.2,0,.31,0Z" style="fill: rgb(11, 29, 59); stroke-width: 0px;"/>
      <path class="cls-1" d="m152.17,271.92c-1.12-.07-2.24-.17-3.33-.29-.1,0-.2-.02-.3-.03.1.01.2.02.3.03,1.09.12,2.21.22,3.33.29Z" style="fill: rgb(11, 29, 59); stroke-width: 0px;"/>
      <path class="cls-1" d="m148.54,271.6c-.4-.05-.79-.1-1.18-.16.03,0,.05,0,.08.01.36.05.73.1,1.1.15Z" style="fill: rgb(11, 29, 59); stroke-width: 0px;"/>
      <path class="cls-1" d="m181.34,267.39c-.62.24-1.29.49-1.97.73,0,0,0,0,0,0l-.19.07c-.34.12-.66.23-.98.33-.08.03-.17.06-.25.08-.54.18-1.07.34-1.6.5-.14.04-.28.09-.42.13-.11.04-.22.07-.33.1-.06.02-.12.03-.17.05h-.03c-.43.13-.86.25-1.3.36l-.71.19c-.49.12-1,.25-1.51.37l-.37.08s0,0,0,0c0,0,0,0,0,0-1.15.26-2.32.49-3.47.68,0,0-.01,0-.02,0,0,0,0,0,0,0-.09.01-.17.03-.26.04l-.1.02s-.02,0-.04,0c-.54.09-1.02.16-1.49.23-.5.07-1.03.14-1.57.2-.01,0-.03,0-.04,0-.04,0-.07,0-.1.01h-.01s-.06,0-.09.01h-.09c-.48.06-1.01.12-1.54.17l-1.42.12c-.29.02-.6.04-.9.06-.54.03-1.1.06-1.67.08h-.24c-.51.02-1,.03-1.48.04-.06,0-.12,0-.18,0-.1,0-.2,0-.31,0-.12,0-.25,0-.37,0-.49,0-.97-.01-1.46-.02-.16,0-.32,0-.48-.01-.65-.02-1.3-.05-1.98-.1-1.12-.07-2.24-.17-3.33-.29-.1,0-.2-.02-.3-.03-.37-.04-.73-.09-1.1-.15-.03,0-.05,0-.08-.01,0,0-.02,0-.02,0l-1.26-.19c-.33-.04-.66-.09-.99-.15,0,0,0,0,0,0,0,0,0,0,0,0-.23-.04-.47-.08-.71-.12l-.2-.04c-.07-.01-.14-.03-.21-.04l22.78,39.38c11.46,19.8,14.5,25.04,15.38,26.59h0s1.93,3.33,1.93,3.33c8.26,12.97,22.33,20.71,37.68,20.71s29.4-7.73,37.66-20.7l1.94-3.35c3.33-6.39,5.02-13.31,5.02-20.57,0-.94-.03-1.9-.1-2.93-.4-6.22-2.06-12.15-4.91-17.63l-2.09-3.6c-.06-.1-.11-.19-.16-.29l-37.33-64.51-1.94,3.35-1.05,1.81c-.39.8-.86,1.58-1.41,2.31l-.86,1.36c-2.46,3.91-5.13,8.15-8.41,12.18-1.97,2.42-4.15,4.76-6.65,6.92-.07.07-.19.17-.32.28-.86.74-1.75,1.46-2.66,2.15-.26.2-.53.38-.79.58-.66.49-1.31.98-1.98,1.45-.35.24-.72.47-1.08.71-.6.4-1.2.8-1.81,1.19-.41.25-.83.49-1.24.73-.55.33-1.09.66-1.64.97-.09.05-.17.1-.25.14l-.17.09s-.03.01-.04.02c-.3.16-.59.32-.89.48l-.79.41c-.24.12-.48.25-.72.37h0s-.05.03-.07.04l-.2.1c-.27.14-.55.28-.83.41-.22.1-.4.18-.57.26l-.33.15s-.13.06-.16.07h0c-.32.15-.62.28-.91.41l-.17.07c-.22.1-.44.19-.66.28-.18.08-.37.16-.57.24-.29.12-.58.23-.88.35h0s-.06.02-.09.03h-.02s0,0,0,0l-.26.1Z" style="fill: rgb(11, 29, 59); stroke-width: 0px;"/>
    </g>
    <path class="cls-1" d="m53.67,64.28c-1.5,2.13-2.82,4.42-3.94,6.81-2.82,6-4.24,12.42-4.24,19.11,0,10.46,3.66,20.65,10.3,28.7,8.6,10.42,21.28,16.41,34.78,16.42h.27c2.72-.01,5.49-.28,8.18-.78,9.7-1.83,18.67-6.92,25.28-14.33,1.58-1.78,3.15-3.83,4.67-6.11,1.86-2.8,3.15-5.22,3.76-6.42l.2-.39c.12-.25.25-.5.39-.74l26.87-46.39c1.64-3.45,3.58-6.77,5.77-9.89,1.27-1.8,2.61-3.53,4.03-5.18h-79.38c-14.67,0-28.48,7.18-36.94,19.2Z" style="fill: rgb(11, 29, 59); stroke-width: 0px;"/>
  </g>
</svg>